<svg xmlns="http://www.w3.org/2000/svg" width="1500" height="663" viewBox="0 0 1500 663"><rect width="100%" height="100%" fill="#DDDDDD"/><path fill="#999999" d="M365.48 378.845h22.88v16.28h-70.4v-16.28h25.79v-74.18q0-4.4.26-9.07l-18.3 15.31q-1.59 1.24-3.13 1.54-1.54.31-2.9.05-1.37-.27-2.42-.93-1.06-.66-1.59-1.45l-6.86-9.41 38.81-33h17.86zm74.1-91.26-4.49 26.49q4.22-.88 8.1-1.27 3.87-.4 7.48-.4 10.03 0 17.68 2.99 7.66 2.99 12.85 8.27t7.83 12.37q2.64 7.08 2.64 15.27 0 10.12-3.56 18.48t-9.9 14.3-15 9.19q-8.67 3.26-18.88 3.26-5.98 0-11.35-1.23-5.37-1.24-10.08-3.3-4.71-2.07-8.71-4.76-4-2.68-7.17-5.67l6.69-9.24q2.11-2.99 5.54-2.99 2.2 0 4.49 1.4 2.29 1.41 5.23 3.08 2.95 1.68 6.96 3.08 4 1.41 9.63 1.41 5.99 0 10.56-1.93 4.58-1.94 7.61-5.42 3.04-3.47 4.58-8.27 1.54-4.79 1.54-10.43 0-10.38-6.03-16.23t-17.82-5.85q-9.06 0-18.57 3.34l-13.55-3.87 10.56-61.78h62.83v9.24q0 4.67-2.9 7.57t-9.86 2.9zm159.54 43.92q0 16.63-3.56 28.9-3.57 12.28-9.86 20.29t-14.87 11.92q-8.58 3.92-18.52 3.92-9.95 0-18.44-3.92-8.49-3.91-14.74-11.92t-9.77-20.29q-3.52-12.27-3.52-28.9 0-16.72 3.52-28.96 3.52-12.23 9.77-20.24 6.25-8 14.74-11.92t18.44-3.92q9.94 0 18.52 3.92t14.87 11.92q6.29 8.01 9.86 20.24 3.56 12.24 3.56 28.96m-22.44 0q0-13.82-2.02-22.88-2.03-9.07-5.41-14.44-3.39-5.36-7.79-7.52t-9.15-2.16q-4.67 0-9.02 2.16-4.36 2.16-7.7 7.52-3.35 5.37-5.33 14.44-1.98 9.06-1.98 22.88 0 13.81 1.98 22.88 1.98 9.06 5.33 14.43 3.34 5.37 7.7 7.52 4.35 2.16 9.02 2.16 4.75 0 9.15-2.16 4.4-2.15 7.79-7.52 3.38-5.37 5.41-14.43 2.02-9.07 2.02-22.88m124.52 0q0 16.63-3.56 28.9-3.57 12.28-9.86 20.29t-14.87 11.92q-8.58 3.92-18.52 3.92-9.95 0-18.44-3.92-8.49-3.91-14.74-11.92t-9.77-20.29q-3.52-12.27-3.52-28.9 0-16.72 3.52-28.96 3.52-12.23 9.77-20.24 6.25-8 14.74-11.92t18.44-3.92q9.94 0 18.52 3.92t14.87 11.92q6.29 8.01 9.86 20.24 3.56 12.24 3.56 28.96m-22.44 0q0-13.82-2.02-22.88-2.03-9.07-5.41-14.44-3.39-5.36-7.79-7.52t-9.15-2.16q-4.67 0-9.02 2.16-4.36 2.16-7.7 7.52-3.35 5.37-5.33 14.44-1.98 9.06-1.98 22.88 0 13.81 1.98 22.88 1.98 9.06 5.33 14.43 3.34 5.37 7.7 7.52 4.35 2.16 9.02 2.16 4.75 0 9.15-2.16 4.4-2.15 7.79-7.52 3.38-5.37 5.41-14.43 2.02-9.07 2.02-22.88m162.19 34.49-11.53 11.35-29.83-29.83-30.1 30.01-11.53-11.35 30.1-30.19-28.69-28.68 11.44-11.44 28.69 28.68 28.51-28.51 11.62 11.44-28.6 28.6zm135.96-98.12-37.76 46.2-4.4 5.46q3.7-1.85 7.97-2.86t9.19-1.01q7.22 0 14.04 2.37 6.82 2.38 12.01 7.17 5.19 4.8 8.36 11.93t3.17 16.63q0 8.89-3.26 16.68-3.25 7.78-9.15 13.59-5.89 5.81-14.21 9.15-8.32 3.35-18.35 3.35-10.21 0-18.3-3.26-8.1-3.25-13.82-9.11-5.72-5.85-8.75-14.08-3.04-8.22-3.04-18.26 0-8.97 3.65-18.43t11.31-19.67l30.36-40.74q1.58-2.12 4.62-3.61 3.04-1.5 7-1.5zm-32.83 110.88q5.19 0 9.55-1.76t7.48-4.93q3.12-3.16 4.88-7.43t1.76-9.29q0-5.45-1.67-9.81-1.67-4.35-4.75-7.39t-7.39-4.62-9.51-1.58q-5.19 0-9.41 1.76-4.23 1.76-7.22 4.88t-4.66 7.39-1.67 9.2q0 5.28 1.45 9.63 1.45 4.36 4.31 7.44t7.08 4.8q4.23 1.71 9.77 1.71m134.91-110.88-37.76 46.2-4.4 5.46q3.7-1.85 7.97-2.86t9.19-1.01q7.22 0 14.04 2.37 6.82 2.38 12.01 7.17 5.19 4.8 8.36 11.93t3.17 16.63q0 8.89-3.26 16.68-3.25 7.78-9.15 13.59-5.89 5.81-14.21 9.15-8.32 3.35-18.35 3.35-10.21 0-18.3-3.26-8.1-3.25-13.82-9.11-5.72-5.85-8.75-14.08-3.04-8.22-3.04-18.26 0-8.97 3.65-18.43t11.31-19.67l30.36-40.74q1.58-2.12 4.62-3.61 3.04-1.5 7-1.5zm-32.83 110.88q5.19 0 9.55-1.76t7.48-4.93q3.12-3.16 4.88-7.43t1.76-9.29q0-5.45-1.67-9.81-1.67-4.35-4.75-7.39t-7.39-4.62-9.51-1.58q-5.19 0-9.41 1.76-4.23 1.76-7.22 4.88t-4.66 7.39-1.67 9.2q0 5.28 1.45 9.63 1.45 4.36 4.31 7.44t7.08 4.8q4.23 1.71 9.77 1.71m72.16-73.39-11.44-2.02q1.32-9.16 5.11-16.06 3.78-6.91 9.46-11.53 5.67-4.62 13.02-6.95 7.35-2.34 15.8-2.34 8.8 0 15.88 2.51t12.1 6.95q5.02 4.45 7.7 10.43 2.68 5.99 2.68 12.94 0 6.07-1.36 10.69t-3.92 8.05q-2.55 3.43-6.33 5.81-3.79 2.38-8.54 3.96 11.44 3.61 17.07 11 5.64 7.39 5.64 18.57 0 9.5-3.52 16.81-3.52 7.3-9.51 12.27-5.98 4.97-13.86 7.53-7.87 2.55-16.67 2.55-9.6 0-16.72-2.2-7.13-2.2-12.41-6.51-5.28-4.32-8.98-10.56-3.69-6.25-6.33-14.44l9.59-3.96q3.78-1.58 7.08-.83t4.8 3.56q1.58 3.08 3.47 6.07 1.9 3 4.54 5.33t6.2 3.78 8.49 1.45q5.55 0 9.68-1.8 4.14-1.8 6.91-4.71 2.77-2.9 4.14-6.47 1.36-3.56 1.36-7.17 0-4.57-.97-8.31t-4.05-6.38-8.84-4.14-15.44-1.5v-15.48q8-.09 13.28-1.5t8.41-3.92q3.12-2.5 4.35-6.02 1.24-3.52 1.24-7.75 0-8.97-5.02-13.64-5.02-4.66-13.38-4.66-3.87 0-7.12 1.1-3.26 1.1-5.86 3.08-2.59 1.98-4.35 4.62t-2.64 5.81q-1.5 4.04-3.92 5.36t-6.82.62"/></svg>